<svg width="400" height="334" viewBox="0 0 400 334" fill="none" xmlns="http://www.w3.org/2000/svg">
    <g clip-path="url(#clip0_123_1291)">
    <mask id="mask0_123_1291" style="mask-type:luminance" maskUnits="userSpaceOnUse" x="0" y="0" width="400" height="334">
    <path d="M400 0H0V333.17H400V0Z" fill="white"/>
    </mask>
    <g mask="url(#mask0_123_1291)">
    <path d="M235.165 328.895C319.978 306.809 400 268.002 400 180.163C400 105.399 339.341 109.799 273.626 78.5568C246.791 65.7957 232.044 0 200 0C89.5385 0 0 74.8689 0 180.163C0 285.436 150.352 350.98 235.165 328.895Z" fill="#F6E4A0"/>
    <mask id="mask1_123_1291" style="mask-type:luminance" maskUnits="userSpaceOnUse" x="0" y="0" width="400" height="334">
    <path d="M0 0H400V333.17H0V0Z" fill="white"/>
    </mask>
    <g mask="url(#mask1_123_1291)">
    <path d="M219.78 79.6254L0 195.92L10.989 385.555L400 367.744L313.187 107.913L219.78 79.6254Z" fill="url(#paint0_linear_123_1291)"/>
    <path d="M271.429 37.7173C299.933 37.7173 323.077 59.7826 323.077 86.9593C323.077 114.136 299.933 136.201 271.429 136.201C242.924 136.201 219.78 114.136 219.78 86.9593C219.78 59.7826 242.924 37.7173 271.429 37.7173Z" fill="#FFFAE8"/>
    </g>
    <mask id="mask2_123_1291" style="mask-type:luminance" maskUnits="userSpaceOnUse" x="0" y="0" width="400" height="334">
    <path d="M0 0H400V333.17H0V0Z" fill="white"/>
    </mask>
    <g mask="url(#mask2_123_1291)">
    <path d="M197.802 484.039C276.703 484.039 384.615 423.062 384.615 347.837C384.615 272.612 298.901 211.636 197.802 211.636C96.7033 211.636 10.989 272.612 10.989 347.837C10.989 423.062 118.901 484.039 197.802 484.039Z" fill="#F2C407"/>
    <path d="M197.802 536.424C276.703 536.424 362.637 475.448 362.637 400.222C362.637 324.997 298.901 264.021 197.802 264.021C96.7033 264.021 32.967 324.997 32.967 400.222C32.967 475.448 118.901 536.424 197.802 536.424Z" fill="#E2B706"/>
    </g>
    <mask id="mask3_123_1291" style="mask-type:luminance" maskUnits="userSpaceOnUse" x="169" y="111" width="112" height="54">
    <path d="M169.744 111.471H280.742V164.384H169.744V111.471Z" fill="white"/>
    </mask>
    <g mask="url(#mask3_123_1291)">
    <path d="M208.166 148.103C208.166 137.988 199.564 129.787 188.955 129.787C178.346 129.787 169.744 137.988 169.744 148.103C169.744 158.217 208.166 158.217 208.166 148.103Z" fill="white"/>
    <path d="M244.454 125.716C255.057 125.716 263.665 133.924 263.665 144.033C263.665 154.141 255.057 162.349 244.454 162.349C233.852 162.349 225.243 154.141 225.243 144.033C225.243 133.924 233.852 125.716 244.454 125.716Z" fill="white"/>
    <path d="M267.934 137.927C275.003 137.927 280.742 143.399 280.742 150.138C280.742 156.877 275.003 162.349 267.934 162.349C260.866 162.349 255.127 156.877 255.127 150.138C255.127 143.399 260.866 137.927 267.934 137.927Z" fill="white"/>
    <path d="M280.742 150.138V156.243C280.742 160.736 276.916 164.384 272.203 164.384H178.282C173.57 164.384 169.744 160.736 169.744 156.243V150.138C169.744 145.645 173.57 141.997 178.282 141.997H272.203C276.916 141.997 280.742 145.645 280.742 150.138Z" fill="white"/>
    <path d="M216.705 111.471C229.664 111.471 240.185 121.502 240.185 133.857C240.185 146.212 229.664 156.243 216.705 156.243C203.746 156.243 193.225 146.212 193.225 133.857C193.225 121.502 203.746 111.471 216.705 111.471Z" fill="white"/>
    </g>
    <mask id="mask4_123_1291" style="mask-type:luminance" maskUnits="userSpaceOnUse" x="-9" y="254" width="69" height="62">
    <path d="M35.2212 254.33L-8.81554 284.379L15.0082 315.951L59.0449 285.903L35.2212 254.33Z" fill="white"/>
    </mask>
    <g mask="url(#mask4_123_1291)">
    <path d="M53.3535 288.948C50.388 290.972 46.2415 290.291 44.079 287.425C41.9165 284.559 42.5659 280.606 45.5314 278.583C48.4968 276.559 52.6434 277.24 54.8058 280.106C56.9683 282.972 56.3189 286.925 53.3535 288.948Z" fill="#483A0C"/>
    <path d="M22.7791 309.897C18.4231 312.869 12.3383 311.87 9.16184 307.66C5.99574 303.465 6.94861 297.663 11.3046 294.691C15.6464 291.728 21.7313 292.728 24.8974 296.924C28.0738 301.133 27.121 306.934 22.7791 309.897Z" fill="#483A0C"/>
    <path d="M26.3687 296.016L41.4894 285.693C40.7214 282.673 41.8534 279.398 44.6299 277.502C45.2563 277.075 45.9166 276.749 46.6003 276.511L41.5865 269.863C40.7145 268.707 39.065 268.436 37.869 269.253L6.06139 290.968L5.14784 290.758L4.90812 291.755L4.85117 291.794L4.88231 291.836L4.18895 294.749L8.00126 295.628C8.66869 294.797 9.47612 294.037 10.4158 293.396C15.513 289.916 22.6524 291.089 26.3687 296.016Z" fill="#483A0C"/>
    <path d="M21.899 266.713L29.6749 277.029L31.8083 275.572L24.0325 265.255L21.899 266.713Z" fill="#483A0C"/>
    <path d="M8.84883 291.328L5.99287 293.277L-1.84002 282.896C-2.69998 281.757 -2.45253 280.173 -1.27321 279.368L7.33732 273.493C8.51665 272.688 10.5089 272.618 11.7794 273.332L24.6064 280.576L22.1483 282.253L11.9192 276.399C10.6383 275.671 8.64606 275.741 7.46674 276.546L3.16147 279.483C1.98214 280.288 1.71013 281.867 2.58045 283.021L8.84883 291.328Z" fill="#483A0C"/>
    </g>
    </g>
    </g>
    <defs>
    <linearGradient id="paint0_linear_123_1291" x1="280.631" y1="30.8443" x2="224.499" y2="217.563" gradientUnits="userSpaceOnUse">
    <stop stop-color="#F9EBB5"/>
    <stop offset="0.5" stop-color="#FBEFC1"/>
    <stop offset="1" stop-color="#FDF3CD"/>
    </linearGradient>
    <clipPath id="clip0_123_1291">
    <rect width="400" height="333.17" fill="white"/>
    </clipPath>
    </defs>
    </svg>
    