<svg width="300" height="60" viewBox="0 0 300 60" fill="none" xmlns="http://www.w3.org/2000/svg">
    <path d="M93.7007 31.0181L98.2393 28.3977C98.6198 28.1781 99.1063 28.3084 99.3259 28.6889L99.4226 28.8564C100.048 29.9399 100.071 31.2692 99.4842 32.3739C98.7688 33.7197 97.1343 34.283 95.7416 33.6637L93.7944 32.7979C93.0476 32.4658 92.9929 31.4268 93.7007 31.0181Z" fill="#F2C407"/>
    <path d="M93.7007 32.9818L98.2393 35.6022C98.6198 35.8219 98.7502 36.3084 98.5305 36.6889L98.4338 36.8563C97.8083 37.9398 96.6687 38.6246 95.4184 38.6684C93.8951 38.7217 92.5901 37.5879 92.43 36.0722L92.2063 33.9529C92.1204 33.1401 92.9929 32.5732 93.7007 32.9818Z" fill="#F2C407"/>
    <path d="M92 33.9638V39.2045C92 39.6438 91.6438 40 91.2045 40H91.0111C89.76 40 88.5972 39.3555 87.9341 38.2946C87.1263 37.0021 87.4557 35.305 88.6883 34.4085L90.4118 33.155C91.0728 32.6743 92 33.1465 92 33.9638Z" fill="#F2C407"/>
    <path d="M90.2993 32.9819L85.7607 35.6023C85.3802 35.8219 84.8937 35.6916 84.6741 35.3111L84.5774 35.1436C83.9518 34.0601 83.9286 32.7308 84.5158 31.6261C85.2312 30.2803 86.8657 29.717 88.2584 30.3363L90.2056 31.2021C90.9524 31.5342 91.0071 32.5732 90.2993 32.9819Z" fill="#F2C407"/>
    <path d="M90.2991 31.018L85.7605 28.3976C85.38 28.178 85.2496 27.6914 85.4693 27.311L85.566 27.1435C86.1915 26.06 87.3311 25.3752 88.5814 25.3314C90.1046 25.2781 91.4097 26.4119 91.5698 27.9277L91.7935 30.047C91.8794 30.8597 91.0069 31.4266 90.2991 31.018Z" fill="#F2C407"/>
    <path d="M92 30.0362V24.7955C92 24.3562 92.3562 24 92.7955 24H92.9889C94.24 24 95.4028 24.6445 96.0659 25.7054C96.8737 26.9979 96.5443 28.695 95.3117 29.5915L93.5882 30.845C92.9272 31.3257 92 30.8535 92 30.0362Z" fill="#F2C407"/>
    <g filter="url(#filter0_i_76_1619)">
    <path d="M113.155 28.6378C113.098 28.0649 112.854 27.6198 112.423 27.3026C111.992 26.9853 111.408 26.8267 110.669 26.8267C110.167 26.8267 109.743 26.8977 109.398 27.0398C109.052 27.1771 108.787 27.3688 108.602 27.6151C108.422 27.8613 108.332 28.1406 108.332 28.4531C108.323 28.7135 108.377 28.9408 108.496 29.1349C108.619 29.3291 108.787 29.4972 109 29.6392C109.213 29.7765 109.459 29.8973 109.739 30.0014C110.018 30.1009 110.316 30.1861 110.634 30.2571L111.94 30.5696C112.575 30.7116 113.157 30.901 113.688 31.1378C114.218 31.3745 114.677 31.6657 115.065 32.0114C115.454 32.357 115.754 32.7642 115.967 33.233C116.185 33.7017 116.296 34.2391 116.301 34.8452C116.296 35.7353 116.069 36.5071 115.619 37.1605C115.174 37.8092 114.53 38.3134 113.688 38.6733C112.849 39.0284 111.839 39.206 110.655 39.206C109.481 39.206 108.458 39.026 107.587 38.6662C106.72 38.3063 106.043 37.7737 105.555 37.0682C105.072 36.358 104.819 35.4796 104.795 34.4332H107.771C107.804 34.9209 107.944 35.3281 108.19 35.6548C108.441 35.9768 108.775 36.2206 109.192 36.3864C109.613 36.5473 110.089 36.6278 110.619 36.6278C111.14 36.6278 111.592 36.5521 111.976 36.4006C112.364 36.2491 112.665 36.0384 112.878 35.7685C113.091 35.4986 113.197 35.1884 113.197 34.8381C113.197 34.5114 113.1 34.2367 112.906 34.0142C112.717 33.7917 112.438 33.6023 112.068 33.446C111.704 33.2898 111.256 33.1477 110.726 33.0199L109.142 32.6222C107.916 32.3239 106.947 31.8575 106.237 31.223C105.527 30.5885 105.174 29.7339 105.179 28.6591C105.174 27.7784 105.409 27.009 105.882 26.3509C106.36 25.6927 107.016 25.179 107.849 24.8097C108.683 24.4403 109.63 24.2557 110.69 24.2557C111.77 24.2557 112.712 24.4403 113.517 24.8097C114.327 25.179 114.956 25.6927 115.406 26.3509C115.856 27.009 116.088 27.7713 116.102 28.6378H113.155ZM116.913 39V28.0909H119.796V30.0156H119.924C120.151 29.3764 120.53 28.8722 121.061 28.5028C121.591 28.1335 122.225 27.9489 122.964 27.9489C123.712 27.9489 124.349 28.1359 124.875 28.5099C125.4 28.8793 125.75 29.3812 125.926 30.0156H126.039C126.262 29.3906 126.664 28.8911 127.247 28.517C127.834 28.1383 128.527 27.9489 129.328 27.9489C130.346 27.9489 131.172 28.2732 131.806 28.9219C132.446 29.5658 132.765 30.4796 132.765 31.6634V39H129.747V32.2599C129.747 31.6539 129.586 31.1993 129.264 30.8963C128.942 30.5933 128.539 30.4418 128.056 30.4418C127.507 30.4418 127.079 30.617 126.771 30.9673C126.463 31.313 126.309 31.7699 126.309 32.3381V39H123.376V32.196C123.376 31.661 123.222 31.2348 122.914 30.9176C122.611 30.6004 122.211 30.4418 121.714 30.4418C121.378 30.4418 121.075 30.527 120.805 30.6974C120.54 30.8632 120.329 31.0975 120.173 31.4006C120.017 31.6989 119.938 32.0492 119.938 32.4517V39H116.913ZM136.866 39.206C136.17 39.206 135.55 39.0852 135.005 38.8438C134.461 38.5975 134.03 38.2353 133.712 37.7571C133.4 37.2741 133.244 36.6728 133.244 35.9531C133.244 35.3471 133.355 34.8381 133.577 34.4261C133.8 34.0142 134.103 33.6828 134.487 33.4318C134.87 33.1809 135.306 32.9915 135.793 32.8636C136.286 32.7358 136.802 32.6458 137.342 32.5938C137.976 32.5275 138.488 32.4659 138.876 32.4091C139.264 32.3475 139.546 32.2576 139.721 32.1392C139.896 32.0208 139.984 31.8456 139.984 31.6136V31.571C139.984 31.1212 139.842 30.7732 139.558 30.527C139.278 30.2808 138.881 30.1577 138.364 30.1577C137.82 30.1577 137.387 30.2784 137.065 30.5199C136.743 30.7566 136.53 31.0549 136.425 31.4148L133.627 31.1875C133.769 30.5246 134.049 29.9517 134.465 29.4688C134.882 28.9811 135.419 28.607 136.077 28.3466C136.74 28.0814 137.507 27.9489 138.379 27.9489C138.985 27.9489 139.565 28.0199 140.119 28.1619C140.677 28.304 141.172 28.5241 141.603 28.8224C142.039 29.1207 142.382 29.5043 142.633 29.973C142.884 30.437 143.009 30.9934 143.009 31.642V39H140.14V37.4872H140.055C139.88 37.8281 139.645 38.1288 139.352 38.3892C139.058 38.6449 138.705 38.8461 138.293 38.9929C137.881 39.1349 137.406 39.206 136.866 39.206ZM137.732 37.1179C138.177 37.1179 138.57 37.0303 138.911 36.8551C139.252 36.6752 139.52 36.4337 139.714 36.1307C139.908 35.8277 140.005 35.4844 140.005 35.1009V33.9432C139.91 34.0047 139.78 34.0616 139.614 34.1136C139.453 34.161 139.271 34.206 139.068 34.2486C138.864 34.2865 138.66 34.322 138.457 34.3551C138.253 34.3835 138.068 34.4096 137.903 34.4332C137.548 34.4853 137.238 34.5682 136.972 34.6818C136.707 34.7955 136.501 34.9493 136.354 35.1435C136.208 35.3329 136.134 35.5696 136.134 35.8537C136.134 36.2656 136.283 36.5805 136.582 36.7983C136.885 37.0114 137.268 37.1179 137.732 37.1179ZM143.957 39V28.0909H146.89V29.9943H147.003C147.202 29.3172 147.536 28.8059 148.005 28.4602C148.474 28.1098 149.013 27.9347 149.624 27.9347C149.776 27.9347 149.939 27.9441 150.114 27.9631C150.289 27.982 150.443 28.008 150.576 28.0412V30.7259C150.434 30.6832 150.237 30.6454 149.986 30.6122C149.735 30.5791 149.506 30.5625 149.298 30.5625C148.852 30.5625 148.455 30.6596 148.104 30.8537C147.759 31.0431 147.484 31.3082 147.28 31.6491C147.082 31.9901 146.982 32.383 146.982 32.8281V39H143.957ZM157.09 28.0909V30.3636H150.52V28.0909H157.09ZM152.012 25.4773H155.037V35.6477C155.037 35.9271 155.08 36.1449 155.165 36.3011C155.25 36.4527 155.369 36.5592 155.52 36.6207C155.676 36.6823 155.856 36.7131 156.06 36.7131C156.202 36.7131 156.344 36.7012 156.486 36.6776C156.628 36.6491 156.737 36.6278 156.813 36.6136L157.288 38.8651C157.137 38.9124 156.924 38.9669 156.649 39.0284C156.375 39.0947 156.041 39.1349 155.648 39.1491C154.919 39.1776 154.279 39.0805 153.73 38.858C153.186 38.6354 152.762 38.2898 152.459 37.821C152.156 37.3523 152.007 36.7604 152.012 36.0455V25.4773ZM160.946 39V24.4545H170.577V26.9901H164.022V30.456H169.938V32.9915H164.022V39H160.946ZM174.163 39.206C173.467 39.206 172.846 39.0852 172.302 38.8438C171.757 38.5975 171.327 38.2353 171.009 37.7571C170.697 37.2741 170.541 36.6728 170.541 35.9531C170.541 35.3471 170.652 34.8381 170.874 34.4261C171.097 34.0142 171.4 33.6828 171.783 33.4318C172.167 33.1809 172.603 32.9915 173.09 32.8636C173.583 32.7358 174.099 32.6458 174.639 32.5938C175.273 32.5275 175.784 32.4659 176.173 32.4091C176.561 32.3475 176.843 32.2576 177.018 32.1392C177.193 32.0208 177.281 31.8456 177.281 31.6136V31.571C177.281 31.1212 177.139 30.7732 176.854 30.527C176.575 30.2808 176.177 30.1577 175.661 30.1577C175.117 30.1577 174.684 30.2784 174.362 30.5199C174.04 30.7566 173.827 31.0549 173.722 31.4148L170.924 31.1875C171.066 30.5246 171.345 29.9517 171.762 29.4688C172.179 28.9811 172.716 28.607 173.374 28.3466C174.037 28.0814 174.804 27.9489 175.675 27.9489C176.282 27.9489 176.862 28.0199 177.416 28.1619C177.974 28.304 178.469 28.5241 178.9 28.8224C179.336 29.1207 179.679 29.5043 179.93 29.973C180.181 30.437 180.306 30.9934 180.306 31.642V39H177.437V37.4872H177.352C177.176 37.8281 176.942 38.1288 176.649 38.3892C176.355 38.6449 176.002 38.8461 175.59 38.9929C175.178 39.1349 174.702 39.206 174.163 39.206ZM175.029 37.1179C175.474 37.1179 175.867 37.0303 176.208 36.8551C176.549 36.6752 176.817 36.4337 177.011 36.1307C177.205 35.8277 177.302 35.4844 177.302 35.1009V33.9432C177.207 34.0047 177.077 34.0616 176.911 34.1136C176.75 34.161 176.568 34.206 176.364 34.2486C176.161 34.2865 175.957 34.322 175.754 34.3551C175.55 34.3835 175.365 34.4096 175.2 34.4332C174.845 34.4853 174.534 34.5682 174.269 34.6818C174.004 34.7955 173.798 34.9493 173.651 35.1435C173.505 35.3329 173.431 35.5696 173.431 35.8537C173.431 36.2656 173.58 36.5805 173.879 36.7983C174.182 37.0114 174.565 37.1179 175.029 37.1179ZM181.253 39V28.0909H184.187V29.9943H184.3C184.499 29.3172 184.833 28.8059 185.302 28.4602C185.771 28.1098 186.31 27.9347 186.921 27.9347C187.073 27.9347 187.236 27.9441 187.411 27.9631C187.586 27.982 187.74 28.008 187.873 28.0412V30.7259C187.731 30.6832 187.534 30.6454 187.283 30.6122C187.032 30.5791 186.803 30.5625 186.594 30.5625C186.149 30.5625 185.752 30.6596 185.401 30.8537C185.056 31.0431 184.781 31.3082 184.577 31.6491C184.378 31.9901 184.279 32.383 184.279 32.8281V39H181.253ZM188.037 39V28.0909H190.921V30.0156H191.048C191.276 29.3764 191.654 28.8722 192.185 28.5028C192.715 28.1335 193.35 27.9489 194.088 27.9489C194.836 27.9489 195.473 28.1359 195.999 28.5099C196.524 28.8793 196.875 29.3812 197.05 30.0156H197.163C197.386 29.3906 197.788 28.8911 198.371 28.517C198.958 28.1383 199.652 27.9489 200.452 27.9489C201.47 27.9489 202.296 28.2732 202.931 28.9219C203.57 29.5658 203.889 30.4796 203.889 31.6634V39H200.871V32.2599C200.871 31.6539 200.71 31.1993 200.388 30.8963C200.066 30.5933 199.663 30.4418 199.181 30.4418C198.631 30.4418 198.203 30.617 197.895 30.9673C197.587 31.313 197.433 31.7699 197.433 32.3381V39H194.5V32.196C194.5 31.661 194.346 31.2348 194.038 30.9176C193.735 30.6004 193.335 30.4418 192.838 30.4418C192.502 30.4418 192.199 30.527 191.929 30.6974C191.664 30.8632 191.453 31.0975 191.297 31.4006C191.141 31.6989 191.063 32.0492 191.063 32.4517V39H188.037Z" fill="#07802E"/>
    </g>
    <defs>
    <filter id="filter0_i_76_1619" x="104.795" y="24.2557" width="99.0939" height="18.9503" filterUnits="userSpaceOnUse" color-interpolation-filters="sRGB">
    <feFlood flood-opacity="0" result="BackgroundImageFix"/>
    <feBlend mode="normal" in="SourceGraphic" in2="BackgroundImageFix" result="shape"/>
    <feColorMatrix in="SourceAlpha" type="matrix" values="0 0 0 0 0 0 0 0 0 0 0 0 0 0 0 0 0 0 127 0" result="hardAlpha"/>
    <feOffset dy="4"/>
    <feGaussianBlur stdDeviation="2"/>
    <feComposite in2="hardAlpha" operator="arithmetic" k2="-1" k3="1"/>
    <feColorMatrix type="matrix" values="0 0 0 0 0 0 0 0 0 0 0 0 0 0 0 0 0 0 0.25 0"/>
    <feBlend mode="normal" in2="shape" result="effect1_innerShadow_76_1619"/>
    </filter>
    </defs>
    </svg>