<svg width="1200" height="600" viewBox="0 0 1200 600" fill="none" xmlns="http://www.w3.org/2000/svg">
    <rect y="0.00012207" width="1200" height="600" rx="5" fill="#07802E"/>
    <mask id="mask0_123_1485" style="mask-type:alpha" maskUnits="userSpaceOnUse" x="0" y="0" width="1200" height="601">
    <rect y="0.00012207" width="1200" height="600" rx="5" fill="#0F172A"/>
    </mask>
    <g mask="url(#mask0_123_1485)">
    <path opacity="0.1" d="M189.441 3.74862C75.5936 70.8901 -144.218 95.0047 -301.803 56.5741C-459.388 18.1434 -492.735 -67.7096 -378.888 -134.851C-265.041 -201.993 -45.2293 -226.107 112.356 -187.677C269.941 -149.246 303.288 -63.3929 189.441 3.74862Z" stroke="white" stroke-width="7"/>
    <path d="M1606.09 655.306C1606.09 671.914 1593.91 688.561 1569.83 704.347C1545.89 720.04 1511.02 734.305 1467.62 746.34C1380.87 770.394 1260.81 785.316 1128.07 785.316C995.322 785.316 875.27 770.394 788.514 746.34C745.112 734.305 710.242 720.04 686.304 704.347C662.222 688.561 650.044 671.914 650.044 655.306C650.044 638.698 662.222 622.052 686.304 606.265C710.242 590.573 745.112 576.307 788.514 564.273C875.27 540.219 995.322 525.296 1128.07 525.296C1260.81 525.296 1380.87 540.219 1467.62 564.273C1511.02 576.307 1545.89 590.573 1569.83 606.265C1593.91 622.052 1606.09 638.698 1606.09 655.306Z" stroke="white" stroke-width="7"/>
    </g>
    </svg>